<svg xmlns="http://www.w3.org/2000/svg" xmlns:xlink="http://www.w3.org/1999/xlink" viewBox="0 0 250.55 252"><defs><style>.cls-1{fill:#fff;}.cls-2{fill:none;}.cls-3{isolation:isolate;}.cls-4{mask:url(#mask);}.cls-5{fill:#ff7200;}.cls-6{fill:#863006;}.cls-10,.cls-7{fill:#ffd01b;}.cls-10,.cls-8{opacity:0.3;mix-blend-mode:multiply;}.cls-9{clip-path:url(#clip-path);}</style><mask id="mask" x="-289.78" y="-1.11" width="1154.49" height="456.38" maskUnits="userSpaceOnUse"><path class="cls-1" d="M350.06,278.2c.15,14,1.21,115.14,1.21,136.62,0,23.18,16.24,31.44,31.44,31.44H408v-36H397.39c-11.38,0-11.38-9-11.38-16.26V278.2Z"/><path class="cls-1" d="M789.16,432.67c0,7.91,8.87,14.35,21.67,14.35h33.88V412.27H832.43c-3.54,0-11.77-1.34-11.77-13.81,0-2.15-1.42-105.47-1.61-119.5H784.28v14l-2.43-1.53a84.23,84.23,0,1,0,4.77,139.53l2.42-1.75ZM737.9,411.14a47.61,47.61,0,1,1,47.6-47.6A47.65,47.65,0,0,1,737.9,411.14Z"/><path class="cls-1" d="M249.84,278.2a84,84,0,0,0,0,168.06A83.24,83.24,0,0,0,309.92,421l-23.57-29.56a46.75,46.75,0,1,1-36.51-75.93,46.45,46.45,0,0,1,38.32,20l20-33.75A83.51,83.51,0,0,0,249.84,278.2Z"/><path class="cls-1" d="M-48.61,277.88c0,8.48.12,49.37.44,85.35a84.26,84.26,0,0,0,84,83.35,83.41,83.41,0,0,0,48.23-15.27l1.43-1,.86,1.52c5.1,9,15.07,14.11,27.34,14.11H139V410H128.39C117,410,117,401,117,393.71V277.88H81.07c.09,9.07.57,54.85.9,91.76,0,20.4-22.42,39.68-46.12,39.68-25.21,0-46.51-19.52-46.51-42.64V365h0V277.88Z"/><path class="cls-1" d="M-95.12,394l-.57.48A95.4,95.4,0,0,1-157,416.9,94.43,94.43,0,0,1-224.15,389,94.47,94.47,0,0,1-252,321.72a95.28,95.28,0,0,1,95.19-95,94.57,94.57,0,0,1,63,24l.65.58,19.8-34.18-.5-.4c-23.81-19.17-51.68-28.31-82.48-28.33-73.54,0-133.41,59.82-133.47,133.36a132.59,132.59,0,0,0,39,94.41,134.3,134.3,0,0,0,94.45,39.17h0A131.36,131.36,0,0,0-71.09,424.5l.55-.46Z"/><path class="cls-1" d="M480.12,446.58l-.08-8.33,0-90.44c4.34-18,24.65-32.67,45.26-32.67,25.21,0,46.51,19.53,46.51,42.64v1.71h0v56.56c0,16.09,14.3,30.21,30.61,30.21H630.2V410.09h-7.74c-8.82,0-12.59-6.28-12.59-21L609.32,360c-.68-45.26-38.36-82.07-84-82.07a83.79,83.79,0,0,0-42.91,11.81L480,291.12V278.2H444.51V446.58Z"/><path class="cls-1" d="M153,20h-8.5c-23.92,0-43.95,3.47-61.22,10.61A106.09,106.09,0,0,0,37,67C12.16,100.94.09,155,.09,232.3v8.51H36.82V232.3c0-10.29.27-20.33.81-29.84h79.7v38.35H153V202.46H169.4V169l-16.44.07ZM117.33,62.76V169.19l-76.52.29c2.63-18.54,6.59-34.93,11.77-48.74,6.85-18.28,16-32.44,27.07-42.09C90.11,69.57,102.79,64.23,117.33,62.76Z"/><path class="cls-1" d="M636.07,65.92A106.12,106.12,0,0,0,589.84,29.5c-17.28-7.14-37.31-10.61-61.23-10.61h-8.5v149l-16.44-.06v33.48h16.44v38.34h35.63V201.35h79.7c.54,9.51.81,19.55.81,29.84v8.5H673v-8.5C673,153.88,660.91,99.82,636.07,65.92Zm-3.81,102.45-76.52-.3V61.65c14.54,1.47,27.22,6.81,37.68,15.89,11.11,9.64,20.22,23.8,27.07,42.08C625.67,133.43,629.63,149.83,632.26,168.37Z"/><polygon class="cls-1" points="241.55 18.89 205.4 18.89 205.79 239.32 205.79 239.69 324.02 239.69 324.02 206.98 241.55 206.98 241.55 18.89"/><polygon class="cls-1" points="329.59 18.89 329.59 51.6 412.25 51.6 412.25 239.69 448.52 239.69 448.18 51.6 494.88 51.6 494.88 18.94 329.97 18.89 329.59 18.89"/><path class="cls-1" d="M368,199.51a23.83,23.83,0,1,0,23.83,23.83A23.86,23.86,0,0,0,368,199.51Z"/><path class="cls-1" d="M370.06,258.2c.15,14,1.21,115.14,1.21,136.62,0,23.18,16.24,31.44,31.44,31.44H428v-36H417.39c-11.38,0-11.38-9-11.38-16.26V258.2Z"/><path class="cls-1" d="M809.16,412.67C810.37,414.76,818,427,830.83,427h33.88V392.27H852.43c-3.54,0-11.77-1.34-11.77-13.81,0-2.15-1.42-105.47-1.61-119.5H804.28v14l-2.43-1.53a84.23,84.23,0,1,0,4.77,139.53l2.42-1.75ZM757.9,391.14a47.61,47.61,0,1,1,47.6-47.6A47.65,47.65,0,0,1,757.9,391.14Z"/><path class="cls-1" d="M269.84,258.2a84,84,0,1,0,0,168.06A83.24,83.24,0,0,0,329.92,401l-23.57-29.56a46.75,46.75,0,1,1-36.51-75.93,46.45,46.45,0,0,1,38.32,20l20-33.75A83.51,83.51,0,0,0,269.84,258.2Z"/><path class="cls-1" d="M-28.61,257.88c0,8.48.12,49.37.44,85.35a84.26,84.26,0,0,0,84,83.35,83.41,83.41,0,0,0,48.23-15.27l1.43-1,.86,1.52c5.1,9,15.07,14.11,27.34,14.11H159V390H148.39C137,390,137,381,137,373.71V257.88h-36c.09,9.07.57,54.85.9,91.76,0,20.4-22.42,39.68-46.12,39.68-25.21,0-46.51-19.52-46.51-42.64V345h0V257.88Z"/><path class="cls-1" d="M-75.12,374l-.57.48A95.4,95.4,0,0,1-137,396.9,94.43,94.43,0,0,1-204.15,369,94.47,94.47,0,0,1-232,301.72a95.28,95.28,0,0,1,95.19-95,94.57,94.57,0,0,1,63,24l.65.58,19.8-34.18-.5-.4c-23.81-19.17-51.68-28.31-82.48-28.33-73.54,0-133.41,59.82-133.47,133.36a132.59,132.59,0,0,0,39,94.41,134.3,134.3,0,0,0,94.45,39.17h0A131.36,131.36,0,0,0-51.09,404.5l.55-.46Z"/><path class="cls-1" d="M469.18,426.58h30.94l-.08-8.33,0-90.44c4.34-18,24.65-32.67,45.26-32.67,25.21,0,46.51,19.53,46.51,42.64v1.71h0v56.56c0,16.09,14.3,30.21,30.61,30.21H650.2V390.09h-7.74c-8.82,0-12.59-6.28-12.59-21L629.32,340c-.68-45.26-38.36-82.07-84-82.07a83.79,83.79,0,0,0-42.91,11.81L500,271.12V258.2H464.51V426.26h4.67Z"/><path class="cls-1" d="M173,0h-8.5c-23.92,0-43.95,3.47-61.22,10.61A106.09,106.09,0,0,0,57,47C32.16,80.94,20.09,135,20.09,212.3v8.51H56.82V212.3c0-10.29.27-20.33.81-29.84h79.7v38.35H173V182.46H189.4V149l-16.44.07ZM137.33,42.76V149.19l-76.52.29c2.63-18.54,6.59-34.93,11.77-48.74,6.85-18.28,16-32.44,27.07-42.09C110.11,49.57,122.79,44.23,137.33,42.76Z"/><path class="cls-1" d="M656.07,45.92A106.12,106.12,0,0,0,609.84,9.5C592.56,2.36,572.53-1.11,548.61-1.11h-8.5v149l-16.44-.06v33.48h16.44v38.34h35.63V181.35h79.7c.54,9.51.81,19.55.81,29.84v8.5H693v-8.5C693,133.88,680.91,79.82,656.07,45.92Zm-3.81,102.45-76.52-.3V41.65c14.54,1.47,27.22,6.81,37.68,15.89,11.11,9.64,20.22,23.8,27.07,42.08C645.67,113.43,649.63,129.83,652.26,148.37Z"/><polygon class="cls-1" points="261.55 -1.11 225.4 -1.11 225.79 219.32 225.79 219.69 344.02 219.69 344.02 186.98 261.55 186.98 261.55 -1.11"/><polygon class="cls-1" points="349.59 -1.11 349.59 31.6 432.25 31.6 432.25 219.69 468.52 219.69 468.18 31.6 514.88 31.6 514.88 -1.06 349.97 -1.11 349.59 -1.11"/><path class="cls-1" d="M388,179.51a23.83,23.83,0,1,0,23.83,23.83A23.86,23.86,0,0,0,388,179.51Z"/><polygon class="cls-1" points="172.97 220.81 152.97 240.81 127.25 240.81 143.25 215.58 172.97 215.58 172.97 220.81"/><polygon class="cls-1" points="56.82 220.81 36.82 240.81 15.75 240.81 20.09 205.58 56.82 207.58 56.82 220.81"/><polygon class="cls-1" points="189.4 182.46 169.4 202.46 169.4 168.98 189.4 168.33 189.4 182.46"/><polygon class="cls-1" points="67.33 34.78 48.25 53.84 48.25 76.58 60.81 69.58 67.33 34.78"/><polygon class="cls-1" points="225.4 -1.11 205.4 18.89 205.4 41.65 240.75 41.65 240.75 0 225.4 -1.11"/><polygon class="cls-1" points="344.02 219.69 324.02 239.69 312.25 239.69 312.25 211.91 344.02 211.91 344.02 219.69"/><path class="cls-1" d="M371.18,186.51l-19.83,19.84,1.23,17s40.91-21.76,39.29-22.43S371.18,186.51,371.18,186.51Z"/><polygon class="cls-1" points="405.35 219.69 382.24 242.46 373.92 227.17 396.42 209.74 405.35 219.69"/><polygon class="cls-1" points="468.52 219.69 448.52 239.69 436.42 239.69 436.42 215.74 468.51 215.74 468.52 219.69"/><polygon class="cls-1" points="349.59 -1.11 329.59 18.89 329.97 29.08 350.42 29.08 350.42 -1.11 349.59 -1.11"/><polygon class="cls-1" points="514.88 31.6 494.88 51.6 490.25 51.6 490.25 27.74 514.88 27.74 514.88 31.6"/><polygon class="cls-1" points="540.11 -1.11 520.11 18.89 520.11 26.91 543.75 26.91 546.08 -1.11 540.11 -1.11"/><polygon class="cls-1" points="523.67 147.87 503.67 167.87 503.67 177.74 523.67 175.24 523.67 147.87"/><polygon class="cls-1" points="575.74 219.69 555.74 239.69 547.25 239.69 547.25 214.58 575.74 214.58 575.74 219.69"/><polygon class="cls-1" points="692.98 219.69 672.98 239.69 664.75 239.69 664.75 215.74 692.98 215.74 692.98 219.69"/><polygon class="cls-1" points="-50.54 404.04 -70.54 424.04 -72.79 425.89 -85.25 418.24 -54.86 398.76 -50.54 404.04"/><polygon class="cls-1" points="-227.7 204.63 -249.07 225.93 -247.08 231.58 -225.75 206.58 -227.7 204.63"/><polygon class="cls-1" points="-73.13 231.24 -93.13 251.24 -102.75 238.91 -77.92 224.08 -73.13 231.24"/><polygon class="cls-1" points="-28.61 257.88 -48.61 277.88 -48.61 287.08 -20.75 287.08 -20.75 257.88 -28.61 257.88"/><polygon class="cls-1" points="101.07 257.88 81.07 277.88 81.07 287.08 104.58 287.08 104.58 258.2 101.07 257.88"/><polygon class="cls-1" points="159.03 425.94 139.03 445.94 131.75 445.94 131.75 420.58 159.03 420.58 159.03 425.94"/><polygon class="cls-1" points="308.16 315.49 288.16 335.49 288.16 319.58 304.2 303.53 310.72 311.16 308.16 315.49"/><path class="cls-1" d="M329.92,401l-20,20-11.17,4.29s-6.17-18-4.5-18.33,19.83-8.17,20.5-8.33,11.42-2.34,11.42-2.34Z"/><polygon class="cls-1" points="214.01 279.49 185.81 307.87 197.08 316.41 217.58 285.08 214.01 279.49"/><polygon class="cls-1" points="370.06 258.2 350.06 278.2 351.35 292.91 379.05 293.58 375.25 258.2 370.06 258.2"/><polygon class="cls-1" points="464.51 258.2 444.51 278.2 444.51 289.24 467.08 290.41 468.52 258.2 464.51 258.2"/><polygon class="cls-1" points="428.03 426.26 408.03 446.26 401.75 446.26 402.58 421.91 428.03 421.91 428.03 426.26"/><polygon class="cls-1" points="500.12 426.58 480.12 446.58 471.58 446.58 471.58 421.24 500.12 426.58"/><polygon class="cls-1" points="650.21 426.26 630.21 446.26 621.58 446.26 621.58 421.24 650.21 421.24 650.21 426.26"/><polygon class="cls-1" points="864.71 427.02 844.71 447.02 833.75 447.02 833.75 421.24 864.71 421.24 864.71 427.02"/><polygon class="cls-1" points="804.28 258.96 784.28 278.96 819.05 278.96 816.92 258.96 804.28 258.96"/><polygon class="cls-1" points="698.45 282.45 677.95 302.94 677.95 305.74 700.08 294.74 698.45 282.45"/></mask><clipPath id="clip-path"><path class="cls-2" d="M241.26,218.21l-11.09-3.1a23.29,23.29,0,0,0-1.74-5.57l0,0a23.59,23.59,0,0,0-2.93-4.82l-.11-.14c-.37-.47-.76-.92-1.17-1.36l-.07-.08c-.42-.45-.85-.88-1.31-1.3,4.92-2.83,8.26-4.86,7.73-4.88-2.36-.09-20.8-14.31-20.69-14.4L190,202.35h0a23.71,23.71,0,0,0-4.18,5.51v0c-.18.32-.36.65-.52,1l0,0c-.16.32-.31.64-.45,1a.36.36,0,0,0,0,.09c-.14.32-.27.64-.39,1a.5.5,0,0,0,0,.13c-.12.31-.22.62-.32.93l-.07.19c-.09.29-.17.59-.25.89a2.33,2.33,0,0,0-.07.25c-.08.29-.14.58-.21.87,0,.1,0,.2-.07.29l-.15.84-.06.35c0,.26-.07.52-.1.78s0,.28,0,.42-.05.52-.06.78,0,.29,0,.44c0,.34,0,.68,0,1a1.48,1.48,0,0,0,0,.21A23.69,23.69,0,0,0,186,231.11c.24.41.48.81.73,1.2l.42.61a22.75,22.75,0,0,0,1.83,2.32c.29.32.58.64.89.94a23.72,23.72,0,0,0,16.84,7q.63,0,1.26,0l.37,0,.87-.07.44-.06.78-.1.45-.08.76-.14.44-.11c.25-.05.5-.11.74-.18l.43-.12L214,242l.39-.13.75-.27.37-.15.75-.31.33-.15.77-.36a2.69,2.69,0,0,0,.29-.16l.78-.41.26-.15c.26-.16.52-.31.77-.48a1.64,1.64,0,0,0,.22-.14c.27-.17.53-.35.79-.54l.18-.12c.27-.2.54-.4.8-.61l.14-.1.8-.68.1-.08.81-.76,0,0c.28-.28.56-.56.82-.85h0Z"/></clipPath></defs><title>crafted_icon</title><g class="cls-3"><g id="Layer_2" data-name="Layer 2"><g id="Layer_1-2" data-name="Layer 1"><g class="cls-4"><path class="cls-5" d="M153,20h-8.5c-23.92,0-43.95,3.47-61.22,10.61A106.09,106.09,0,0,0,37,67C12.16,100.94.09,155,.09,232.3v8.51H36.82V232.3c0-10.29.27-20.33.81-29.84h79.7v38.35H153V202.46H169.4V169l-16.44.07ZM117.33,62.76V169.19l-76.52.29c2.63-18.54,6.59-34.93,11.77-48.74,6.85-18.28,16-32.44,27.07-42.09C90.11,69.57,102.79,64.23,117.33,62.76Z"/><path class="cls-5" d="M173,0h-8.5c-23.92,0-43.95,3.47-61.22,10.61A106.09,106.09,0,0,0,57,47C32.16,80.94,20.09,135,20.09,212.3v8.51H56.82V212.3c0-10.29.27-20.33.81-29.84h79.7v38.35H173V182.46H189.4V149l-16.44.07ZM137.33,42.76V149.19l-76.52.29c2.63-18.54,6.59-34.93,11.77-48.74,6.85-18.28,16-32.44,27.07-42.09C110.11,49.57,122.79,44.23,137.33,42.76Z"/><polygon class="cls-5" points="172.97 220.81 152.97 240.81 127.25 240.81 143.25 215.58 172.97 215.58 172.97 220.81"/><polygon class="cls-5" points="56.82 220.81 36.82 240.81 15.75 240.81 20.09 205.58 56.82 207.58 56.82 220.81"/><polygon class="cls-5" points="189.4 182.46 169.4 202.46 169.4 168.98 189.4 168.33 189.4 182.46"/><polygon class="cls-5" points="67.33 34.78 48.25 53.84 48.25 76.58 60.81 69.58 67.33 34.78"/><polygon class="cls-6" points="147.33 32.76 106.49 73.6 70.81 73.6 108.52 35.89 147.33 32.76"/><polygon class="cls-6" points="67.33 211.16 26.49 252 0 240.83 20.08 220.83 67.33 211.16"/><polygon class="cls-6" points="187.09 207.3 146.25 248.14 117.38 240.7 137.5 220.83 187.09 207.3"/><polygon class="cls-6" points="203.7 168.91 162.86 209.74 144.18 209.74 181.88 172.04 203.7 168.91"/><polygon class="cls-6" points="137.5 182.33 117.35 202.45 55.13 202.58 53.88 182.45 137.5 182.33"/></g><path class="cls-7" d="M173,0h-8.5c-23.92,0-43.95,3.47-61.22,10.61A106.09,106.09,0,0,0,57,47C32.16,80.94,20.09,135,20.09,212.3v8.51H56.82V212.3c0-10.29.27-20.33.81-29.84h79.7v38.35H173V182.46H189.4V149l-16.44.07ZM137.33,42.76V149.19l-76.52.29c2.63-18.54,6.59-34.93,11.77-48.74,6.85-18.28,16-32.44,27.07-42.09C110.11,49.57,122.79,44.23,137.33,42.76Z"/><g class="cls-8"><path class="cls-7" d="M145.33,212.81V174.46H50.07L49.64,182c-.54,9.65-.82,19.84-.82,30.29v.51H28.09v-.51c0-75.54,11.57-128.06,35.37-160.54A98.26,98.26,0,0,1,106.29,18c16.29-6.73,35.31-10,58.17-10h.5V157.08L181.4,157v17.45H165v38.35Zm-8.8-178c-16.22,1.64-30.39,7.63-42.12,17.81-12.13,10.53-22,25.77-29.32,45.32-5.38,14.34-9.48,31.31-12.2,50.43l-1.3,9.16,93.74-.37V33.91Z"/></g><path class="cls-5" d="M241.26,218.21l-11.09-3.1a23.29,23.29,0,0,0-1.74-5.57l0,0a23.59,23.59,0,0,0-2.93-4.82l-.11-.14c-.37-.47-.76-.92-1.17-1.36l-.07-.08c-.42-.45-.85-.88-1.31-1.3,4.92-2.83,8.26-4.86,7.73-4.88-2.36-.09-20.8-14.31-20.69-14.4L190,202.35h0a23.71,23.71,0,0,0-4.18,5.51v0c-.18.32-.36.65-.52,1l0,0c-.16.32-.31.64-.45,1a.36.36,0,0,0,0,.09c-.14.32-.27.64-.39,1a.5.5,0,0,0,0,.13c-.12.31-.22.62-.32.93l-.07.19c-.09.29-.17.59-.25.89a2.33,2.33,0,0,0-.07.25c-.08.29-.14.58-.21.87,0,.1,0,.2-.07.29l-.15.84-.06.35c0,.26-.07.52-.1.78s0,.28,0,.42-.05.52-.06.78,0,.29,0,.44c0,.34,0,.68,0,1a1.48,1.48,0,0,0,0,.21A23.69,23.69,0,0,0,186,231.11c.24.41.48.81.73,1.2l.42.61a22.75,22.75,0,0,0,1.83,2.32c.29.32.58.64.89.94a23.72,23.72,0,0,0,16.84,7q.63,0,1.26,0l.37,0,.87-.07.44-.06.78-.1.45-.08.76-.14.44-.11c.25-.05.5-.11.74-.18l.43-.12L214,242l.39-.13.75-.27.37-.15.75-.31.33-.15.77-.36a2.69,2.69,0,0,0,.29-.16l.78-.41.26-.15c.26-.16.52-.31.77-.48a1.64,1.64,0,0,0,.22-.14c.27-.17.53-.35.79-.54l.18-.12c.27-.2.54-.4.8-.61l.14-.1.8-.68.1-.08.81-.76,0,0c.28-.28.56-.56.82-.85h0Z"/><g class="cls-9"><polygon class="cls-6" points="246.9 218.46 220.53 244.14 196.62 244.14 182.89 232.91 209.26 207.24 246.9 218.46"/></g><path class="cls-5" d="M226.72,175.51a23.83,23.83,0,1,0,23.83,23.83A23.86,23.86,0,0,0,226.72,175.51Z"/><path class="cls-7" d="M226.72,175.51a23.83,23.83,0,1,0,23.83,23.83A23.86,23.86,0,0,0,226.72,175.51Z"/><path class="cls-10" d="M226.72,215.17a15.83,15.83,0,1,1,15.83-15.83A15.85,15.85,0,0,1,226.72,215.17Z"/></g></g></g></svg>