<svg xmlns="http://www.w3.org/2000/svg" xmlns:xlink="http://www.w3.org/1999/xlink" viewBox="0 0 1171.51 529.19"><defs><style>.cls-1{fill:#fff;}.cls-2{isolation:isolate;}.cls-3{mask:url(#mask);}.cls-4{fill:#ff7200;}.cls-5{fill:#863006;}.cls-6,.cls-8{fill:#ffd01b;}.cls-7,.cls-8{opacity:0.3;mix-blend-mode:multiply;}</style><mask id="mask" x="0" y="0" width="1171.51" height="529.19" maskUnits="userSpaceOnUse"><path class="cls-1" d="M639.85,279.31c.14,14,1.2,115.14,1.2,136.63,0,23.17,16.24,31.43,31.44,31.43h25.32v-36H687.17c-11.37,0-11.37-9-11.37-16.27V279.31Z"/><path class="cls-1" d="M1078.94,433.78c0,7.91,8.87,14.35,21.67,14.35h33.88V413.39h-12.28c-3.54,0-11.77-1.35-11.77-13.82,0-2.15-1.42-105.47-1.61-119.5h-34.77v14l-2.43-1.52a84.23,84.23,0,1,0,4.78,139.52l2.41-1.75Zm-51.26-21.53a47.61,47.61,0,1,1,47.61-47.6A47.65,47.65,0,0,1,1027.68,412.25Z"/><path class="cls-1" d="M539.62,279.31a84,84,0,0,0,0,168.06,83.2,83.2,0,0,0,60.08-25.31L576.13,392.5a46.75,46.75,0,1,1-36.51-75.93,46.45,46.45,0,0,1,38.32,20l20-33.75A83.47,83.47,0,0,0,539.62,279.31Z"/><path class="cls-1" d="M241.17,279c0,8.49.12,49.37.44,85.35a84.27,84.27,0,0,0,84,83.36,83.41,83.41,0,0,0,48.23-15.27l1.43-1,.86,1.52c5.1,9,15.07,14.11,27.34,14.11h25.32v-36H418.17c-11.37,0-11.37-9-11.37-16.26V279H370.85c.09,9.07.57,54.85.9,91.76,0,20.41-22.42,39.68-46.12,39.68-25.21,0-46.51-19.52-46.51-42.64v-1.71h0V279Z"/><path class="cls-1" d="M194.66,395.12l-.57.47A95.41,95.41,0,0,1,132.82,418,95.11,95.11,0,1,1,196,251.77l.65.58,19.8-34.18-.5-.4c-23.81-19.16-51.68-28.3-82.48-28.33C59.93,189.44.06,249.27,0,322.8a132.59,132.59,0,0,0,39,94.41,134.3,134.3,0,0,0,94.45,39.17h0a131.36,131.36,0,0,0,85.22-30.77l.55-.46Z"/><path class="cls-1" d="M769.9,447.7l-.08-8.34,0-90.44c4.34-18,24.65-32.67,45.26-32.67,25.21,0,46.51,19.53,46.51,42.64v1.71h0v56.56c0,16.09,14.3,30.21,30.61,30.21H920V411.2h-7.75c-8.82,0-12.59-6.28-12.59-21l-.55-29.15c-.68-45.25-38.35-82.07-84-82.07a83.89,83.89,0,0,0-42.91,11.81l-2.39,1.44V279.31H734.29V447.7Z"/><path class="cls-1" d="M442.75,21.11h-8.51c-23.92,0-43.95,3.47-61.22,10.61a106.09,106.09,0,0,0-46.24,36.42c-24.83,33.91-36.91,88-36.91,165.28v8.5H326.6v-8.5c0-10.3.27-20.34.81-29.85h79.7v38.35h35.64V203.57h16.43V170.09l-16.43.07ZM407.11,63.87V170.3l-76.52.29c2.63-18.53,6.59-34.93,11.77-48.74,6.85-18.28,16-32.44,27.07-42.09C379.89,70.69,392.57,65.34,407.11,63.87Z"/><path class="cls-1" d="M925.85,67a106.12,106.12,0,0,0-46.23-36.42C862.34,23.47,842.31,20,818.39,20h-8.5V169.05L793.45,169v33.48h16.44v38.35h35.63V202.46h79.7c.54,9.51.81,19.55.81,29.84v8.51h36.73V232.3C962.76,155,950.69,100.94,925.85,67ZM922,169.48l-76.52-.29V62.76c14.55,1.47,27.22,6.81,37.68,15.89,11.11,9.65,20.22,23.81,27.07,42.09C915.45,134.54,919.41,150.94,922,169.48Z"/><polygon class="cls-1" points="531.33 20 495.18 20 495.57 240.43 495.57 240.81 613.8 240.81 613.8 208.1 531.33 208.1 531.33 20"/><polygon class="cls-1" points="619.37 20 619.37 52.71 702.03 52.71 702.03 240.81 738.3 240.81 737.96 52.71 784.66 52.71 784.66 20.05 619.75 20 619.37 20"/><path class="cls-1" d="M657.82,200.62a23.83,23.83,0,1,0,23.83,23.83A23.86,23.86,0,0,0,657.82,200.62Z"/><path class="cls-1" d="M659.85,259.31c.14,14,1.2,115.14,1.2,136.63,0,23.17,16.24,31.43,31.44,31.43h25.32v-36H707.17c-11.37,0-11.37-9-11.37-16.27V259.31Z"/><path class="cls-1" d="M1098.94,413.78c1.21,2.09,8.87,14.35,21.67,14.35h33.88V393.39h-12.28c-3.54,0-11.77-1.35-11.77-13.82,0-2.15-1.42-105.47-1.61-119.5h-34.77v14l-2.43-1.52a84.23,84.23,0,1,0,4.78,139.52l2.41-1.75Zm-51.26-21.53a47.61,47.61,0,1,1,47.61-47.6A47.65,47.65,0,0,1,1047.68,392.25Z"/><path class="cls-1" d="M559.62,259.31a84,84,0,0,0,0,168.06,83.2,83.2,0,0,0,60.08-25.31L596.13,372.5a46.75,46.75,0,1,1-36.51-75.93,46.45,46.45,0,0,1,38.32,20l20-33.75A83.47,83.47,0,0,0,559.62,259.31Z"/><path class="cls-1" d="M261.17,259c0,8.49.12,49.37.44,85.35a84.27,84.27,0,0,0,84,83.36,83.41,83.41,0,0,0,48.23-15.27l1.43-1,.86,1.52c5.1,9,15.07,14.11,27.34,14.11h25.32v-36H438.17c-11.37,0-11.37-9-11.37-16.26V259H390.85c.09,9.07.57,54.85.9,91.76,0,20.41-22.42,39.68-46.12,39.68-25.21,0-46.51-19.52-46.51-42.64v-1.71h0V259Z"/><path class="cls-1" d="M214.66,375.12l-.57.47A95.41,95.41,0,0,1,152.82,398,95.11,95.11,0,1,1,216,231.77l.65.58,19.8-34.18-.5-.4c-23.81-19.16-51.68-28.3-82.48-28.33C79.93,169.44,20.06,229.27,20,302.8a132.59,132.59,0,0,0,39,94.41,134.3,134.3,0,0,0,94.45,39.17h0a131.36,131.36,0,0,0,85.22-30.77l.55-.46Z"/><path class="cls-1" d="M759,427.7H789.9l-.08-8.34,0-90.44c4.34-18,24.65-32.67,45.26-32.67,25.21,0,46.51,19.53,46.51,42.64v1.71h0v56.56c0,16.09,14.3,30.21,30.61,30.21H940V391.2h-7.75c-8.82,0-12.59-6.28-12.59-21l-.55-29.15c-.68-45.25-38.35-82.07-84-82.07a83.89,83.89,0,0,0-42.91,11.81l-2.39,1.44V259.31H754.29V427.37H759Z"/><path class="cls-1" d="M462.75,1.11h-8.51c-23.92,0-43.95,3.47-61.22,10.61a106.09,106.09,0,0,0-46.24,36.42c-24.83,33.91-36.91,88-36.91,165.28v8.5H346.6v-8.5c0-10.3.27-20.34.81-29.85h79.7v38.35h35.64V183.57h16.43V150.09l-16.43.07ZM427.11,43.87V150.3l-76.52.29c2.63-18.53,6.59-34.93,11.77-48.74,6.85-18.28,16-32.44,27.07-42.09C399.89,50.69,412.57,45.34,427.11,43.87Z"/><path class="cls-1" d="M945.85,47a106.12,106.12,0,0,0-46.23-36.42C882.34,3.47,862.31,0,838.39,0h-8.5V149.05L813.45,149v33.48h16.44v38.35h35.63V182.46h79.7c.54,9.51.81,19.55.81,29.84v8.51h36.73V212.3C982.76,135,970.69,80.94,945.85,47ZM942,149.48l-76.52-.29V42.76c14.55,1.47,27.22,6.81,37.68,15.89,11.11,9.65,20.22,23.81,27.07,42.09C935.45,114.54,939.41,130.94,942,149.48Z"/><polygon class="cls-1" points="551.33 0 515.18 0 515.57 220.43 515.57 220.81 633.8 220.81 633.8 188.1 551.33 188.1 551.33 0"/><polygon class="cls-1" points="639.37 0 639.37 32.71 722.03 32.71 722.03 220.81 758.3 220.81 757.96 32.71 804.66 32.71 804.66 0.05 639.75 0 639.37 0"/><path class="cls-1" d="M677.82,180.62a23.83,23.83,0,1,0,23.83,23.83A23.86,23.86,0,0,0,677.82,180.62Z"/><polygon class="cls-1" points="462.75 221.92 442.75 241.92 417.03 241.92 433.03 216.69 462.75 216.69 462.75 221.92"/><polygon class="cls-1" points="346.6 221.92 326.6 241.92 305.53 241.92 309.87 206.69 346.6 208.69 346.6 221.92"/><polygon class="cls-1" points="479.18 183.57 459.18 203.57 459.18 170.09 479.18 169.44 479.18 183.57"/><polygon class="cls-1" points="357.11 35.89 338.03 54.95 338.03 77.69 350.59 70.69 357.11 35.89"/><polygon class="cls-1" points="515.18 0 495.18 20 495.18 42.76 530.53 42.76 530.53 1.11 515.18 0"/><polygon class="cls-1" points="633.8 220.81 613.8 240.81 602.03 240.81 602.03 213.02 633.8 213.02 633.8 220.81"/><path class="cls-1" d="M661,187.62l-19.83,19.84,1.23,17s40.91-21.76,39.29-22.43S661,187.62,661,187.62Z"/><polygon class="cls-1" points="695.13 220.81 672.02 243.58 663.7 228.28 686.2 210.86 695.13 220.81"/><polygon class="cls-1" points="758.3 220.81 738.3 240.81 726.2 240.81 726.2 216.86 758.29 216.86 758.3 220.81"/><polygon class="cls-1" points="639.37 0 619.37 20 619.75 30.19 640.2 30.19 640.2 0 639.37 0"/><polygon class="cls-1" points="804.66 32.71 784.66 52.71 780.03 52.71 780.03 28.86 804.66 28.86 804.66 32.71"/><polygon class="cls-1" points="829.89 0 809.89 20 809.89 28.02 833.53 28.02 835.86 0 829.89 0"/><polygon class="cls-1" points="813.45 148.98 793.45 168.98 793.45 178.86 813.45 176.36 813.45 148.98"/><polygon class="cls-1" points="865.52 220.81 845.52 240.81 837.03 240.81 837.03 215.69 865.52 215.69 865.52 220.81"/><polygon class="cls-1" points="982.76 220.81 962.76 240.81 954.53 240.81 954.53 216.86 982.76 216.86 982.76 220.81"/><polygon class="cls-1" points="239.24 405.15 219.24 425.15 216.99 427.01 204.53 419.36 234.92 399.87 239.24 405.15"/><polygon class="cls-1" points="62.08 205.74 40.71 227.04 42.7 232.69 64.03 207.69 62.08 205.74"/><polygon class="cls-1" points="216.65 232.35 196.65 252.35 187.03 240.02 211.86 225.19 216.65 232.35"/><polygon class="cls-1" points="261.17 258.99 241.17 278.99 241.17 288.19 269.03 288.19 269.03 258.99 261.17 258.99"/><polygon class="cls-1" points="390.85 258.99 370.85 278.99 370.85 288.19 394.36 288.19 394.36 259.31 390.85 258.99"/><polygon class="cls-1" points="448.81 427.05 428.81 447.05 421.53 447.05 421.53 421.69 448.81 421.69 448.81 427.05"/><polygon class="cls-1" points="597.94 316.6 577.94 336.6 577.94 320.69 593.98 304.64 600.5 312.27 597.94 316.6"/><path class="cls-1" d="M619.7,402.06l-20,20-11.17,4.3s-6.17-18-4.5-18.34,19.83-8.16,20.5-8.33S616,397.36,616,397.36Z"/><polygon class="cls-1" points="503.79 280.6 475.59 308.98 486.86 317.52 507.36 286.19 503.79 280.6"/><polygon class="cls-1" points="659.85 259.31 639.85 279.31 641.13 294.02 668.83 294.69 665.03 259.31 659.85 259.31"/><polygon class="cls-1" points="754.29 259.31 734.29 279.31 734.29 290.36 756.86 291.52 758.3 259.31 754.29 259.31"/><polygon class="cls-1" points="717.81 427.37 697.81 447.37 691.53 447.37 692.36 423.02 717.81 423.02 717.81 427.37"/><polygon class="cls-1" points="789.9 427.69 769.9 447.69 761.36 447.69 761.36 422.36 789.9 427.69"/><polygon class="cls-1" points="939.99 427.37 919.99 447.37 911.36 447.37 911.36 422.36 939.99 422.36 939.99 427.37"/><polygon class="cls-1" points="1154.49 428.13 1134.49 448.13 1123.53 448.13 1123.53 422.36 1154.49 422.36 1154.49 428.13"/><polygon class="cls-1" points="1094.06 260.07 1074.06 280.07 1108.83 280.07 1106.7 260.07 1094.06 260.07"/><polygon class="cls-1" points="988.23 283.56 967.73 304.06 967.73 306.86 989.86 295.86 988.23 283.56"/></mask></defs><title>crafted</title><g class="cls-2"><g id="Layer_2" data-name="Layer 2"><g id="Layer_1-2" data-name="Layer 1"><g class="cls-3"><path class="cls-4" d="M639.85,279.31c.14,14,1.2,115.14,1.2,136.63,0,23.17,16.24,31.43,31.44,31.43h25.32v-36H687.17c-11.37,0-11.37-9-11.37-16.27V279.31Z"/><path class="cls-4" d="M1078.94,433.78c0,7.91,8.87,14.35,21.67,14.35h33.88V413.39h-12.28c-3.54,0-11.77-1.35-11.77-13.82,0-2.15-1.42-105.47-1.61-119.5h-34.77v14l-2.43-1.52a84.23,84.23,0,1,0,4.78,139.52l2.41-1.75Zm-51.26-21.53a47.61,47.61,0,1,1,47.61-47.6A47.65,47.65,0,0,1,1027.68,412.25Z"/><path class="cls-4" d="M539.62,279.31a84,84,0,0,0,0,168.06,83.2,83.2,0,0,0,60.08-25.31L576.13,392.5a46.75,46.75,0,1,1-36.51-75.93,46.45,46.45,0,0,1,38.32,20l20-33.75A83.47,83.47,0,0,0,539.62,279.31Z"/><path class="cls-4" d="M241.17,279c0,8.49.12,49.37.44,85.35a84.27,84.27,0,0,0,84,83.36,83.41,83.41,0,0,0,48.23-15.27l1.43-1,.86,1.52c5.1,9,15.07,14.11,27.34,14.11h25.32v-36H418.17c-11.37,0-11.37-9-11.37-16.26V279H370.85c.09,9.07.57,54.85.9,91.76,0,20.41-22.42,39.68-46.12,39.68-25.21,0-46.51-19.52-46.51-42.64v-1.71h0V279Z"/><path class="cls-4" d="M194.66,395.12l-.57.47A95.41,95.41,0,0,1,132.82,418,95.11,95.11,0,1,1,196,251.77l.65.58,19.8-34.18-.5-.4c-23.81-19.16-51.68-28.3-82.48-28.33C59.93,189.44.06,249.27,0,322.8a132.59,132.59,0,0,0,39,94.41,134.3,134.3,0,0,0,94.45,39.17h0a131.36,131.36,0,0,0,85.22-30.77l.55-.46Z"/><path class="cls-4" d="M769.9,447.7l-.08-8.34,0-90.44c4.34-18,24.65-32.67,45.26-32.67,25.21,0,46.51,19.53,46.51,42.64v1.71h0v56.56c0,16.09,14.3,30.21,30.61,30.21H920V411.2h-7.75c-8.82,0-12.59-6.28-12.59-21l-.55-29.15c-.68-45.25-38.35-82.07-84-82.07a83.89,83.89,0,0,0-42.91,11.81l-2.39,1.44V279.31H734.29V447.7Z"/><path class="cls-4" d="M442.75,21.11h-8.51c-23.92,0-43.95,3.47-61.22,10.61a106.09,106.09,0,0,0-46.24,36.42c-24.83,33.91-36.91,88-36.91,165.28v8.5H326.6v-8.5c0-10.3.27-20.34.81-29.85h79.7v38.35h35.64V203.57h16.43V170.09l-16.43.07ZM407.11,63.87V170.3l-76.52.29c2.63-18.53,6.59-34.93,11.77-48.74,6.85-18.28,16-32.44,27.07-42.09C379.89,70.69,392.57,65.34,407.11,63.87Z"/><path class="cls-4" d="M925.85,67a106.12,106.12,0,0,0-46.23-36.42C862.34,23.47,842.31,20,818.39,20h-8.5V169.05L793.45,169v33.48h16.44v38.35h35.63V202.46h79.7c.54,9.51.81,19.55.81,29.84v8.51h36.73V232.3C962.76,155,950.69,100.94,925.85,67ZM922,169.48l-76.52-.29V62.76c14.55,1.47,27.22,6.81,37.68,15.89,11.11,9.65,20.22,23.81,27.07,42.09C915.45,134.54,919.41,150.94,922,169.48Z"/><polygon class="cls-4" points="531.33 20 495.18 20 495.57 240.43 495.57 240.81 613.8 240.81 613.8 208.1 531.33 208.1 531.33 20"/><polygon class="cls-4" points="619.37 20 619.37 52.71 702.03 52.71 702.03 240.81 738.3 240.81 737.96 52.71 784.66 52.71 784.66 20.05 619.75 20 619.37 20"/><path class="cls-4" d="M657.82,200.62a23.83,23.83,0,1,0,23.83,23.83A23.86,23.86,0,0,0,657.82,200.62Z"/><path class="cls-4" d="M659.85,259.31c.14,14,1.2,115.14,1.2,136.63,0,23.17,16.24,31.43,31.44,31.43h25.32v-36H707.17c-11.37,0-11.37-9-11.37-16.27V259.31Z"/><path class="cls-4" d="M1098.94,413.78c1.21,2.09,8.87,14.35,21.67,14.35h33.88V393.39h-12.28c-3.54,0-11.77-1.35-11.77-13.82,0-2.15-1.42-105.47-1.61-119.5h-34.77v14l-2.43-1.52a84.23,84.23,0,1,0,4.78,139.52l2.41-1.75Zm-51.26-21.53a47.61,47.61,0,1,1,47.61-47.6A47.65,47.65,0,0,1,1047.68,392.25Z"/><path class="cls-4" d="M559.62,259.31a84,84,0,0,0,0,168.06,83.2,83.2,0,0,0,60.08-25.31L596.13,372.5a46.75,46.75,0,1,1-36.51-75.93,46.45,46.45,0,0,1,38.32,20l20-33.75A83.47,83.47,0,0,0,559.62,259.31Z"/><path class="cls-4" d="M261.17,259c0,8.49.12,49.37.44,85.35a84.27,84.27,0,0,0,84,83.36,83.41,83.41,0,0,0,48.23-15.27l1.43-1,.86,1.52c5.1,9,15.07,14.11,27.34,14.11h25.32v-36H438.17c-11.37,0-11.37-9-11.37-16.26V259H390.85c.09,9.07.57,54.85.9,91.76,0,20.41-22.42,39.68-46.12,39.68-25.21,0-46.51-19.52-46.51-42.64v-1.71h0V259Z"/><path class="cls-4" d="M214.66,375.12l-.57.47A95.41,95.41,0,0,1,152.82,398,95.11,95.11,0,1,1,216,231.77l.65.58,19.8-34.18-.5-.4c-23.81-19.16-51.68-28.3-82.48-28.33C79.93,169.44,20.06,229.27,20,302.8a132.59,132.59,0,0,0,39,94.41,134.3,134.3,0,0,0,94.45,39.17h0a131.36,131.36,0,0,0,85.22-30.77l.55-.46Z"/><path class="cls-4" d="M759,427.7H789.9l-.08-8.34,0-90.44c4.34-18,24.65-32.67,45.26-32.67,25.21,0,46.51,19.53,46.51,42.64v1.71h0v56.56c0,16.09,14.3,30.21,30.61,30.21H940V391.2h-7.75c-8.82,0-12.59-6.28-12.59-21l-.55-29.15c-.68-45.25-38.35-82.07-84-82.07a83.89,83.89,0,0,0-42.91,11.81l-2.39,1.44V259.31H754.29V427.37H759Z"/><path class="cls-4" d="M462.75,1.11h-8.51c-23.92,0-43.95,3.47-61.22,10.61a106.09,106.09,0,0,0-46.24,36.42c-24.83,33.91-36.91,88-36.91,165.28v8.5H346.6v-8.5c0-10.3.27-20.34.81-29.85h79.7v38.35h35.64V183.57h16.43V150.09l-16.43.07ZM427.11,43.87V150.3l-76.52.29c2.63-18.53,6.59-34.93,11.77-48.74,6.85-18.28,16-32.44,27.07-42.09C399.89,50.69,412.57,45.34,427.11,43.87Z"/><path class="cls-4" d="M945.85,47a106.12,106.12,0,0,0-46.23-36.42C882.34,3.47,862.31,0,838.39,0h-8.5V149.05L813.45,149v33.48h16.44v38.35h35.63V182.46h79.7c.54,9.51.81,19.55.81,29.84v8.51h36.73V212.3C982.76,135,970.69,80.94,945.85,47ZM942,149.48l-76.52-.29V42.76c14.55,1.47,27.22,6.81,37.68,15.89,11.11,9.65,20.22,23.81,27.07,42.09C935.45,114.54,939.41,130.94,942,149.48Z"/><polygon class="cls-4" points="551.33 0 515.18 0 515.57 220.43 515.57 220.81 633.8 220.81 633.8 188.1 551.33 188.1 551.33 0"/><polygon class="cls-4" points="639.37 0 639.37 32.71 722.03 32.71 722.03 220.81 758.3 220.81 757.96 32.71 804.66 32.71 804.66 0.05 639.75 0 639.37 0"/><path class="cls-4" d="M677.82,180.62a23.83,23.83,0,1,0,23.83,23.83A23.86,23.86,0,0,0,677.82,180.62Z"/><polygon class="cls-4" points="462.75 221.92 442.75 241.92 417.03 241.92 433.03 216.69 462.75 216.69 462.75 221.92"/><polygon class="cls-4" points="346.6 221.92 326.6 241.92 305.53 241.92 309.87 206.69 346.6 208.69 346.6 221.92"/><polygon class="cls-4" points="479.18 183.57 459.18 203.57 459.18 170.09 479.18 169.44 479.18 183.57"/><polygon class="cls-4" points="357.11 35.89 338.03 54.95 338.03 77.69 350.59 70.69 357.11 35.89"/><polygon class="cls-4" points="515.18 0 495.18 20 495.18 42.76 530.53 42.76 530.53 1.11 515.18 0"/><polygon class="cls-4" points="633.8 220.81 613.8 240.81 602.03 240.81 602.03 213.02 633.8 213.02 633.8 220.81"/><path class="cls-4" d="M661,187.62l-19.83,19.84,1.23,17s40.91-21.76,39.29-22.43S661,187.62,661,187.62Z"/><polygon class="cls-4" points="695.13 220.81 672.02 243.58 663.7 228.28 686.2 210.86 695.13 220.81"/><polygon class="cls-4" points="758.3 220.81 738.3 240.81 726.2 240.81 726.2 216.86 758.29 216.86 758.3 220.81"/><polygon class="cls-4" points="639.37 0 619.37 20 619.75 30.19 640.2 30.19 640.2 0 639.37 0"/><polygon class="cls-4" points="804.66 32.71 784.66 52.71 780.03 52.71 780.03 28.86 804.66 28.86 804.66 32.71"/><polygon class="cls-4" points="829.89 0 809.89 20 809.89 28.02 833.53 28.02 835.86 0 829.89 0"/><polygon class="cls-4" points="813.45 148.98 793.45 168.98 793.45 178.86 813.45 176.36 813.45 148.98"/><polygon class="cls-4" points="865.52 220.81 845.52 240.81 837.03 240.81 837.03 215.69 865.52 215.69 865.52 220.81"/><polygon class="cls-4" points="982.76 220.81 962.76 240.81 954.53 240.81 954.53 216.86 982.76 216.86 982.76 220.81"/><polygon class="cls-4" points="239.24 405.15 219.24 425.15 216.99 427.01 204.53 419.36 234.92 399.87 239.24 405.15"/><polygon class="cls-4" points="62.08 205.74 40.71 227.04 42.7 232.69 64.03 207.69 62.08 205.74"/><polygon class="cls-4" points="216.65 232.35 196.65 252.35 187.03 240.02 211.86 225.19 216.65 232.35"/><polygon class="cls-4" points="261.17 258.99 241.17 278.99 241.17 288.19 269.03 288.19 269.03 258.99 261.17 258.99"/><polygon class="cls-4" points="390.85 258.99 370.85 278.99 370.85 288.19 394.36 288.19 394.36 259.31 390.85 258.99"/><polygon class="cls-4" points="448.81 427.05 428.81 447.05 421.53 447.05 421.53 421.69 448.81 421.69 448.81 427.05"/><polygon class="cls-4" points="597.94 316.6 577.94 336.6 577.94 320.69 593.98 304.64 600.5 312.27 597.94 316.6"/><path class="cls-4" d="M619.7,402.06l-20,20-11.17,4.3s-6.17-18-4.5-18.34,19.83-8.16,20.5-8.33S616,397.36,616,397.36Z"/><polygon class="cls-4" points="503.79 280.6 475.59 308.98 486.86 317.52 507.36 286.19 503.79 280.6"/><polygon class="cls-4" points="659.85 259.31 639.85 279.31 641.13 294.02 668.83 294.69 665.03 259.31 659.85 259.31"/><polygon class="cls-4" points="754.29 259.31 734.29 279.31 734.29 290.36 756.86 291.52 758.3 259.31 754.29 259.31"/><polygon class="cls-4" points="717.81 427.37 697.81 447.37 691.53 447.37 692.36 423.02 717.81 423.02 717.81 427.37"/><polygon class="cls-4" points="789.9 427.69 769.9 447.69 761.36 447.69 761.36 422.36 789.9 427.69"/><polygon class="cls-4" points="939.99 427.37 919.99 447.37 911.36 447.37 911.36 422.36 939.99 422.36 939.99 427.37"/><polygon class="cls-4" points="1154.49 428.13 1134.49 448.13 1123.53 448.13 1123.53 422.36 1154.49 422.36 1154.49 428.13"/><polygon class="cls-4" points="1094.06 260.07 1074.06 280.07 1108.83 280.07 1106.7 260.07 1094.06 260.07"/><polygon class="cls-4" points="988.23 283.56 967.73 304.06 967.73 306.86 989.86 295.86 988.23 283.56"/><polygon class="cls-5" points="437.11 33.87 396.27 74.71 360.59 74.71 398.3 37 437.11 33.87"/><polygon class="cls-5" points="357.11 212.27 316.27 253.11 289.78 241.94 309.86 221.94 357.11 212.27"/><polygon class="cls-5" points="476.87 208.41 436.03 249.25 407.16 241.81 427.28 221.94 476.87 208.41"/><polygon class="cls-5" points="493.48 170.02 452.64 210.86 433.96 210.86 471.67 173.15 493.48 170.02"/><polygon class="cls-5" points="427.28 183.44 407.13 203.56 344.91 203.69 343.66 183.56 427.28 183.44"/><polygon class="cls-5" points="463.72 431.19 357.11 512.19 244.53 406.21 282.24 368.5 463.72 431.19"/><polygon class="cls-5" points="626.03 399.87 567.67 519.22 455.09 413.24 492.8 375.53 626.03 399.87"/><polygon class="cls-5" points="633.8 220.81 613.8 240.81 495.57 240.81 515.57 220.81 633.8 220.81"/><polygon class="cls-5" points="149.3 206.86 104.03 252.35 50.03 252.35 95.3 206.86 149.3 206.86"/><polygon class="cls-5" points="580.16 285.42 534.9 330.92 480.9 330.92 526.16 285.42 580.16 285.42"/><polygon class="cls-5" points="854.29 285.42 809.02 330.92 755.02 330.92 800.29 285.42 854.29 285.42"/><polygon class="cls-5" points="1171.51 409.85 1113.15 529.19 942.21 413.24 979.92 375.53 1171.51 409.85"/><polygon class="cls-5" points="1067.28 285.42 1022.02 330.92 968.02 330.92 1013.28 285.42 1067.28 285.42"/><polygon class="cls-5" points="726.2 423.02 691.53 457.12 619.2 444.44 664.46 398.94 726.2 423.02"/><polygon class="cls-5" points="239.24 387.36 244.53 502.69 6.13 431.79 50.57 387.36 239.24 387.36"/><polygon class="cls-5" points="758.36 220.77 738.28 240.86 702.01 240.81 722.01 220.81 758.36 220.77"/><polygon class="cls-5" points="789.9 427.69 769.9 447.69 734.29 447.69 754.29 427.69 789.9 427.69"/><polygon class="cls-5" points="942.71 424.86 919.93 447.64 869.2 453.36 859.2 421.72 881.98 398.94 942.71 424.86"/><polygon class="cls-5" points="722.03 32.69 702.11 52.69 619.36 52.69 639.45 32.77 722.03 32.69"/><polygon class="cls-5" points="829.89 182.44 809.89 202.44 793.45 202.44 813.53 182.52 829.89 182.44"/><polygon class="cls-5" points="871.54 220.81 851.54 240.81 809.89 240.81 829.89 220.81 871.54 220.81"/><polygon class="cls-5" points="988.69 220.81 968.69 240.81 926.11 240.86 946.03 220.69 988.69 220.81"/><polygon class="cls-5" points="945.43 182.44 925.43 202.44 846.83 202.44 856.83 182.44 945.43 182.44"/><polygon class="cls-5" points="914.82 42.71 880.01 77.69 838.87 77.69 863.68 42.71 914.82 42.71"/><polygon class="cls-5" points="697.81 223.58 671.44 249.25 647.53 249.25 633.8 238.03 660.17 212.35 697.81 223.58"/><polygon class="cls-5" points="804.66 32.76 784.66 52.76 748.73 52.76 752.03 32.76 804.66 32.76"/></g><path class="cls-6" d="M659.85,259.31c.14,14,1.2,115.14,1.2,136.63,0,23.17,16.24,31.43,31.44,31.43h25.32v-36H707.17c-11.37,0-11.37-9-11.37-16.27V259.31Z"/><path class="cls-6" d="M1098.94,413.78c0,6.16,8.87,14.35,21.67,14.35h33.88V393.39h-12.28c-3.54,0-11.77-1.35-11.77-13.82,0-2.15-1.42-105.47-1.61-119.5h-34.77v14l-2.43-1.52a84.23,84.23,0,1,0,4.78,139.52l2.41-1.75Zm-51.26-21.53a47.61,47.61,0,1,1,47.61-47.6A47.65,47.65,0,0,1,1047.68,392.25Z"/><path class="cls-6" d="M559.62,259.31a84,84,0,0,0,0,168.06,83.2,83.2,0,0,0,60.08-25.31L596.13,372.5a46.75,46.75,0,1,1-36.51-75.93,46.45,46.45,0,0,1,38.32,20l20-33.75A83.47,83.47,0,0,0,559.62,259.31Z"/><path class="cls-6" d="M261.17,259c0,8.49.12,49.37.44,85.35a84.27,84.27,0,0,0,84,83.36,83.41,83.41,0,0,0,48.23-15.27l1.43-1,.86,1.52c5.1,9,15.07,14.11,27.34,14.11h25.32v-36H438.17c-11.37,0-11.37-9-11.37-16.26V259H390.85c.09,9.07.57,54.85.9,91.76,0,20.41-22.42,39.68-46.12,39.68-25.21,0-46.51-19.52-46.51-42.64v-1.71h0V259Z"/><path class="cls-6" d="M214.66,375.12l-.57.47A95.41,95.41,0,0,1,152.82,398,95.11,95.11,0,1,1,216,231.77l.65.58,19.8-34.18-.5-.4c-23.81-19.16-51.68-28.3-82.48-28.33C79.93,169.44,20.06,229.27,20,302.8a132.59,132.59,0,0,0,39,94.41,134.3,134.3,0,0,0,94.45,39.17h0a131.36,131.36,0,0,0,85.22-30.77l.55-.46Z"/><path class="cls-6" d="M789.9,427.7l-.08-8.34,0-90.44c4.34-18,24.65-32.67,45.26-32.67,25.21,0,46.51,19.53,46.51,42.64v1.71h0v56.56c0,16.09,14.3,30.21,30.61,30.21H940V391.2h-7.75c-8.82,0-12.59-6.28-12.59-21l-.55-29.15c-.68-45.25-38.35-82.07-84-82.07a83.89,83.89,0,0,0-42.91,11.81l-2.39,1.44V259.31H754.29V427.7Z"/><path class="cls-6" d="M462.75,1.11h-8.51c-23.92,0-43.95,3.47-61.22,10.61a106.09,106.09,0,0,0-46.24,36.42c-24.83,33.91-36.91,88-36.91,165.28v8.5H346.6v-8.5c0-10.3.27-20.34.81-29.85h79.7v38.35h35.64V183.57h16.43V150.09l-16.43.07ZM427.11,43.87V150.3l-76.52.29c2.63-18.53,6.59-34.93,11.77-48.74,6.85-18.28,16-32.44,27.07-42.09C399.89,50.69,412.57,45.34,427.11,43.87Z"/><path class="cls-6" d="M945.85,47a106.12,106.12,0,0,0-46.23-36.42C882.34,3.47,862.31,0,838.39,0h-8.5V149.05L813.45,149v33.48h16.44v38.35h35.63V182.46h79.7c.54,9.51.81,19.55.81,29.84v8.51h36.73V212.3C982.76,135,970.69,80.94,945.85,47ZM942,149.48l-76.52-.29V42.76c14.55,1.47,27.22,6.81,37.68,15.89,11.11,9.65,20.22,23.81,27.07,42.09C935.45,114.54,939.41,130.94,942,149.48Z"/><polygon class="cls-6" points="551.33 0 515.18 0 515.57 220.43 515.57 220.81 633.8 220.81 633.8 188.1 551.33 188.1 551.33 0"/><polygon class="cls-6" points="639.37 0 639.37 32.71 722.03 32.71 722.03 220.81 758.3 220.81 757.96 32.71 804.66 32.71 804.66 0.05 639.75 0 639.37 0"/><path class="cls-6" d="M677.82,180.62a23.83,23.83,0,1,0,23.83,23.83A23.86,23.86,0,0,0,677.82,180.62Z"/><g class="cls-7"><path class="cls-6" d="M692.49,419.37c-7,0-23.44-2.28-23.44-23.43,0-19.31-.84-102.07-1.12-128.63H687.8V375.14c0,4.19,0,9.41,2.12,14.13,1.7,3.79,6.21,10.14,17.25,10.14h2.64v20Z"/><path class="cls-6" d="M1120.61,420.13c-8.51,0-13.24-4.84-13.67-6.47L1106.3,395l-14.6,10.61a76.22,76.22,0,1,1-4.32-126.28l14.68,9.22V268.07h18.88c.94,68.51,1.49,110,1.5,111.5,0,16.1,10.65,21.82,19.77,21.82h4.28v18.74ZM1047.68,289a55.61,55.61,0,1,0,55.61,55.61A55.67,55.67,0,0,0,1047.68,289Z"/><path class="cls-6" d="M559.62,419.37A76,76,0,1,1,607.7,284.44l-11,18.61a54.79,54.79,0,1,0-1.13,81.55l13.3,16.68A75.33,75.33,0,0,1,559.62,419.37Z"/><path class="cls-6" d="M345.63,419.7a76.24,76.24,0,0,1-76-75.42c-.26-29.24-.37-61.7-.42-77.29h21.95V337.7l0,8.38v1.71c0,27.45,25,50.64,54.51,50.64,28.32,0,54.12-22.72,54.12-47.68-.27-30.57-.64-66.84-.82-83.76H418.8V374.82c0,4.19,0,9.4,2.12,14.13,1.7,3.78,6.21,10.13,17.25,10.13h2.64v20H423.49c-9.32,0-16.74-3.67-20.38-10.06l-5.22-9.18-8.63,6.07A75.44,75.44,0,0,1,345.63,419.7Z"/><path class="cls-6" d="M153.48,428.38a126.49,126.49,0,0,1-88.8-36.82A124.65,124.65,0,0,1,28,302.81c.06-69.13,56.34-125.37,125.47-125.37,27.34,0,51.72,7.69,72.54,22.79l-11.56,20a103.18,103.18,0,1,0-1,166.07l14.47,17.68a123.38,123.38,0,0,1-74.42,24.45Z"/><path class="cls-6" d="M762.29,419.7V267.31h19.53v19l14.49-8.66A75.79,75.79,0,0,1,835.12,267c41.28,0,75.36,33.28,76,74.19l.55,29.11c0,19.06,6.86,28.79,20.34,28.91v20.17H912.22c-11.83,0-22.61-10.59-22.61-22.21V349.4l0-8.8v-1.71c0-27.45-25-50.64-54.51-50.64-24.5,0-47.79,17-53,38.8l-.22.92,0,91.38v.35Z"/><path class="cls-6" d="M435.11,213.92V175.57H339.85l-.43,7.55c-.54,9.65-.82,19.85-.82,30.3v.5H317.87v-.5c0-75.55,11.57-128.06,35.37-160.55a98.26,98.26,0,0,1,42.83-33.76c16.29-6.73,35.32-10,58.17-10h.51V158.19l16.43-.06v17.44H454.75v38.35Zm-8.8-178c-16.22,1.64-30.39,7.63-42.12,17.81-12.13,10.53-22,25.78-29.32,45.32-5.38,14.35-9.48,31.31-12.2,50.43l-1.3,9.16,93.74-.36V35Z"/><path class="cls-6" d="M954,212.81v-.51c0-10.45-.27-20.64-.82-30.29l-.43-7.55H857.52v38.35H837.89V174.46H821.45V157l16.44.07V8h.5c22.86,0,41.88,3.27,58.17,10A98.34,98.34,0,0,1,939.4,51.76c23.79,32.48,35.36,85,35.36,160.54v.51Zm-96.51-55.66,93.74.37-1.3-9.16c-2.71-19.12-6.82-36.09-12.2-50.43-7.32-19.55-17.19-34.79-29.32-45.32-11.73-10.18-25.9-16.17-42.12-17.81l-8.8-.89Z"/><polygon class="cls-6" points="523.56 212.81 523.2 8 543.33 8 543.33 196.1 625.8 196.1 625.8 212.81 523.56 212.81"/><polygon class="cls-6" points="730.03 212.81 730.03 24.71 647.37 24.71 647.37 8 796.66 8.05 796.66 24.71 749.94 24.71 750.28 212.81 730.03 212.81"/></g><path class="cls-8" d="M677.82,220.28a15.83,15.83,0,1,1,15.83-15.83A15.85,15.85,0,0,1,677.82,220.28Z"/></g></g></g></svg>