<svg xmlns="http://www.w3.org/2000/svg" viewBox="0 0 297 297" width="512" height="512"><path d="M293.097 109.022c0-37.212-30.262-67.485-67.46-67.485-1.616 0-3.248.06-4.888.183C204.742 17.654 177.624 2.955 148.5 2.955c-29.123 0-56.241 14.702-72.248 38.765a65.632 65.632 0 0 0-4.888-.183c-37.199 0-67.461 30.273-67.461 67.485 0 33.947 25.192 62.107 57.856 66.786v93.263c0 13.771 11.203 24.974 24.973 24.974h123.536c13.771 0 24.973-11.204 24.973-24.974v-93.263c32.665-4.68 57.856-32.84 57.856-66.786zm-82.83 165.812H86.734c-3.122 0-5.763-2.64-5.763-5.764v-93.254a66.38 66.38 0 0 0 26.405-9.752c12.362 6.687 26.422 10.44 41.125 10.44s28.762-3.753 41.124-10.439a66.417 66.417 0 0 0 26.407 9.751v93.254c0 3.125-2.64 5.764-5.763 5.764zm15.37-117.542c-6.466 0-12.716-1.263-18.524-3.69 11.69-10.717 20.526-24.646 24.963-40.654 1.416-5.112-1.579-10.406-6.691-11.823-5.113-1.416-10.405 1.58-11.823 6.691-8.072 29.132-34.827 49.476-65.062 49.476s-56.989-20.344-65.062-49.476c-1.416-5.112-6.707-8.107-11.823-6.691-5.112 1.416-8.107 6.71-6.691 11.823 4.436 16.008 13.273 29.938 24.963 40.653-5.808 2.428-12.058 3.691-18.523 3.691-26.606 0-48.25-21.654-48.25-48.27 0-26.618 21.645-48.274 48.25-48.274 2.69 0 5.458.24 8.23.715a9.615 9.615 0 0 0 9.997-4.764c11.962-21.3 34.535-34.533 58.908-34.533S195.445 35.4 207.409 56.7a9.61 9.61 0 0 0 9.997 4.763 48.95 48.95 0 0 1 8.229-.715c26.605 0 48.25 21.656 48.25 48.274.002 26.616-21.643 48.27-48.248 48.27z" data-original="#000000" class="active-path" data-old_color="#E6CFCF" fill="#FFF"/></svg>