<?xml version="1.0" standalone="no"?>
<!DOCTYPE svg PUBLIC "-//W3C//DTD SVG 20010904//EN"
 "http://www.w3.org/TR/2001/REC-SVG-20010904/DTD/svg10.dtd">
<svg version="1.0" xmlns="http://www.w3.org/2000/svg"
 width="504.000000pt" height="504.000000pt" viewBox="0 0 504.000000 504.000000"
 preserveAspectRatio="xMidYMid meet">
<metadata>
Created by potrace 1.11, written by Peter Selinger 2001-2013
</metadata>
<g transform="translate(0.000000,504.000000) scale(0.100000,-0.100000)"
fill="#000000" stroke="none">
<path d="M3057 5034 c-1 -1 -43 -5 -92 -9 -50 -3 -103 -7 -120 -9 -89 -10
-148 -19 -215 -33 -41 -8 -84 -16 -95 -17 -12 -1 -26 -6 -33 -10 -7 -4 -12 -5
-12 -2 0 3 -11 1 -26 -4 -14 -6 -38 -12 -54 -15 -128 -22 -405 -134 -585 -234
-58 -33 -225 -146 -260 -177 -16 -14 -45 -38 -64 -52 -27 -22 -567 -560 -606
-605 -86 -98 -195 -249 -273 -377 -22 -37 -146 -280 -148 -289 0 -4 -11 -28
-23 -56 -13 -27 -34 -79 -47 -115 -14 -36 -29 -74 -34 -85 -21 -46 -123 -386
-134 -445 -2 -14 -13 -61 -24 -105 -17 -69 -24 -99 -38 -175 -2 -8 -6 -31 -10
-50 -3 -19 -8 -44 -9 -55 -2 -11 -10 -60 -19 -110 -8 -49 -18 -112 -21 -140
-4 -27 -8 -61 -11 -75 -2 -14 -7 -47 -10 -75 -3 -27 -7 -66 -9 -85 -2 -19 -6
-62 -9 -95 -3 -33 -8 -82 -11 -110 -3 -27 -8 -86 -10 -130 -3 -44 -8 -114 -10
-155 -12 -185 -16 -296 -20 -595 l-3 -320 366 -1 367 -1 200 200 200 199 1
179 c1 99 3 182 6 184 3 4 571 6 1119 5 l87 0 0 -358 c0 -196 1 -368 1 -382
l1 -26 355 1 355 0 200 200 200 200 0 85 c1 47 1 92 1 100 0 8 0 51 -1 95 -2
174 -19 141 165 324 l164 163 -1 334 -1 334 -164 0 c-148 0 -163 2 -163 18 -1
9 -1 680 -1 1490 l0 1473 -210 -2 c-115 -2 -210 -4 -212 -5z m-690 -2114 c0
-473 -2 -860 -6 -861 -3 -1 -257 -3 -563 -5 -528 -4 -558 -3 -558 13 0 16 19
132 37 228 3 17 7 39 9 50 8 51 29 139 88 380 1 6 13 44 26 85 13 41 25 80 26
85 4 19 56 160 74 200 10 22 23 57 31 78 7 20 17 37 21 37 4 0 8 7 8 15 0 20
90 190 147 277 31 48 59 78 98 103 31 19 59 35 63 35 4 0 27 11 52 24 25 13
63 29 85 36 22 7 46 17 53 23 6 5 12 7 12 4 0 -3 28 3 63 14 34 10 85 22 112
25 28 4 52 8 54 10 2 2 19 4 36 4 l32 0 0 -860z"/>
<path d="M4430 1514 c-60 -18 -140 -55 -140 -66 0 -4 -5 -8 -12 -8 -6 0 -35
-24 -64 -54 -58 -59 -108 -148 -125 -223 -11 -50 -14 -163 -5 -198 3 -11 9
-36 14 -55 10 -39 42 -99 79 -148 126 -167 366 -230 566 -148 15 6 27 14 27
17 0 4 11 10 25 13 36 9 145 121 177 182 55 103 73 248 43 349 -16 52 -56 133
-80 165 -30 37 -108 110 -119 110 -5 0 -17 7 -27 16 -56 51 -258 78 -359 48z"/>
</g>
</svg>
